<?xml version="1.0" encoding="UTF-8" standalone="no"?><!-- Generator: Gravit.io -->
<svg xmlns:xlink="http://www.w3.org/1999/xlink" xmlns="http://www.w3.org/2000/svg" style="isolation:isolate"
     viewBox="0 0 40 40" width="40pt" height="40pt">
    <defs>
        <clipPath id="_clipPath_Y1NLa6Qo1vtwGikpOFVSKz0bBczYw7yL">
            <rect width="40" height="40" />
        </clipPath>
    </defs>
    <g clip-path="url(#_clipPath_Y1NLa6Qo1vtwGikpOFVSKz0bBczYw7yL)">
        <path d=" M 30.656 21.953 L 31.061 21.953 L 31.313 20.189 L 32.222 20.189 L 32.222 19.784 L 31.376 19.784 L 31.583 18.371 L 32.474 18.371 L 32.474 17.966 L 31.637 17.966 L 31.871 16.409 L 31.466 16.409 L 31.232 17.966 L 30.152 17.966 L 30.386 16.409 L 29.981 16.409 L 29.747 17.966 L 28.865 17.966 L 28.865 18.371 L 29.693 18.371 L 29.486 19.784 L 28.613 19.784 L 28.613 20.189 L 29.423 20.189 L 29.171 21.953 L 29.576 21.953 L 29.828 20.189 L 30.908 20.189 L 30.656 21.953 Z  M 30.098 18.371 L 31.178 18.371 L 30.971 19.784 L 29.891 19.784 L 30.098 18.371 Z  M 33.14 24.158 C 34.373 24.158 35.021 23.69 34.769 22.367 L 34.562 21.341 C 34.445 20.711 34.706 20.189 35.651 20.18 L 35.651 19.82 C 34.706 19.811 34.445 19.289 34.562 18.659 L 34.769 17.633 C 35.021 16.31 34.373 15.842 33.14 15.842 L 33.14 16.22 C 34.067 16.229 34.517 16.517 34.31 17.624 L 34.112 18.704 C 33.977 19.46 34.355 19.856 34.958 20 C 34.355 20.144 33.977 20.54 34.112 21.296 L 34.31 22.376 C 34.517 23.483 34.067 23.771 33.14 23.78 L 33.14 24.158 Z  M 12.998 22.925 C 14.186 22.925 14.987 22.286 14.987 20.891 L 14.987 16.409 L 13.781 16.409 L 13.781 20.864 C 13.781 21.656 13.403 21.962 12.818 21.962 C 12.44 21.962 12.215 21.89 11.99 21.8 L 11.99 22.736 C 12.197 22.844 12.467 22.925 12.998 22.925 Z  M 19.208 22.934 C 20.738 22.934 21.836 22.151 22.025 20.603 L 20.855 20.603 C 20.729 21.512 20.099 21.962 19.208 21.962 C 18.02 21.962 17.327 21.107 17.327 19.658 L 17.327 19.586 C 17.327 18.146 18.065 17.264 19.199 17.264 C 20.126 17.264 20.603 17.705 20.738 18.56 L 21.953 18.56 C 21.809 17.048 20.666 16.31 19.19 16.31 C 17.399 16.31 16.067 17.66 16.067 19.595 L 16.067 19.667 C 16.067 21.647 17.192 22.934 19.208 22.934 Z  M 24.563 22.844 L 25.949 22.844 L 28.127 16.409 L 27.002 16.409 L 25.319 21.629 L 23.645 16.409 L 22.394 16.409 L 24.563 22.844 Z  M 9.56 21.953 L 9.965 21.953 L 10.217 20.189 L 11.126 20.189 L 11.126 19.784 L 10.28 19.784 L 10.487 18.371 L 11.378 18.371 L 11.378 17.966 L 10.541 17.966 L 10.775 16.409 L 10.37 16.409 L 10.136 17.966 L 9.056 17.966 L 9.29 16.409 L 8.885 16.409 L 8.651 17.966 L 7.769 17.966 L 7.769 18.371 L 8.597 18.371 L 8.39 19.784 L 7.517 19.784 L 7.517 20.189 L 8.327 20.189 L 8.075 21.953 L 8.48 21.953 L 8.732 20.189 L 9.812 20.189 L 9.56 21.953 Z  M 9.002 18.371 L 10.082 18.371 L 9.875 19.784 L 8.795 19.784 L 9.002 18.371 Z  M 6.86 24.158 L 6.86 23.78 C 5.924 23.771 5.483 23.483 5.681 22.376 L 5.888 21.296 C 6.023 20.54 5.645 20.144 5.042 20 C 5.645 19.856 6.023 19.46 5.888 18.704 L 5.681 17.624 C 5.483 16.517 5.924 16.229 6.86 16.22 L 6.86 15.842 C 5.627 15.842 4.979 16.31 5.231 17.633 L 5.429 18.659 C 5.555 19.289 5.285 19.811 4.349 19.82 L 4.349 20.18 C 5.285 20.189 5.555 20.711 5.429 21.341 L 5.231 22.367 C 4.979 23.69 5.627 24.158 6.86 24.158 Z "
              fill="rgb(255,255,255)" />
    </g>
</svg>
